<svg width="125" height="125" fill="none" xmlns="http://www.w3.org/2000/svg"><circle cx="62.5" cy="62.5" r="62.5" transform="rotate(-90 62.5 62.5)" fill="#E9CF49"/><path d="M61.071 18.486c-.25 2.18 1.307 3.914 4.03 4.416 2.792.515 4.873-.594 5.299-2.902.325-1.763-.513-2.99-3.01-4.04l-1.326-.558c-1.634-.685-2.176-1.482-1.994-2.467.234-1.271 1.576-1.81 3.132-1.523 1.625.3 2.55 1.337 2.437 2.728l1.556.287c.321-2.13-1.203-3.948-3.692-4.407-2.584-.477-4.666.632-5.045 2.689-.327 1.772.545 3.103 2.943 4.108l1.327.558c1.658.699 2.222 1.518 2.03 2.564-.227 1.227-1.618 1.891-3.312 1.579-1.79-.33-2.884-1.372-2.819-2.745l-1.556-.287zM79.722 25.98l-5.883-2.183 1.516-4.087 5.579 2.07.489-1.32-5.58-2.069 1.416-3.815 5.884 2.182.495-1.334-7.367-2.733-4.41 11.89 7.366 2.733.495-1.335zM82.034 29.326l5.69-8.13.064.046-.001 12.11 1.26.883 7.272-10.391-1.282-.897-5.71 8.159-.064-.046.02-12.14-1.26-.881-7.271 10.39 1.282.897zM100.525 27.994l-9.65 8.23 2.767 3.244c2.447 2.868 5.67 3.03 8.712.436 3.036-2.59 3.378-5.804.937-8.667l-2.766-3.243zm-.056 2.128l1.671 1.96c1.87 2.193 1.565 4.544-.849 6.603-2.394 2.041-4.77 1.965-6.634-.222l-1.671-1.959 7.483-6.382z" fill="#1F1F1F"/></svg>