<svg width="125" height="125" fill="none" xmlns="http://www.w3.org/2000/svg"><circle cx="62.5" cy="62.5" r="62.5" transform="rotate(-90 62.5 62.5)" fill="#E9CF49"/><path d="M65.926 10.674l-1.512 12.592 1.57.189.54-4.494 2.906.349c2.365.284 4.25-1.181 4.536-3.572.287-2.382-1.181-4.24-3.546-4.524l-4.494-.54zm1.403 1.585l2.513.302c1.806.216 2.71 1.316 2.51 2.983-.201 1.676-1.35 2.538-3.147 2.322l-2.513-.301.637-5.306zM81.574 25.922l-5.735-2.127 3.915-10.556-1.483-.55-4.41 11.89 7.218 2.678.495-1.335zM89.587 33.166l1.371.937 3.298-13.109-1.292-.883-11.017 7.832 1.371.937 3.1-2.277 4.166 2.847-.997 3.716zm2.915-11.039l.044.03-1.588 5.92-3.396-2.322 4.94-3.628zM93.536 37.302l4.156-3.538 8.417-1.259-1.168-1.371-6.581 1.056-.034-.04 2.091-6.33-1.168-1.371-2.583 8.11-4.156 3.539 1.026 1.204zM72 63l-15 8.66V54.34L72 63z" fill="#1F1F1F"/></svg>