<svg width="64" height="48" fill="none" xmlns="http://www.w3.org/2000/svg"><g clip-path="url(#clip0)"><path d="M14.542 19.167c-.711 0-1.394.109-2.073.208.22-.744.446-1.502.81-2.183.363-.989.931-1.846 1.496-2.71.472-.934 1.304-1.566 1.917-2.365.64-.777 1.515-1.294 2.207-1.94.68-.674 1.569-1.01 2.277-1.486.74-.427 1.384-.9 2.073-1.124l1.72-.713 1.511-.632L24.933 0 23.03.462c-.609.154-1.352.334-2.197.55-.865.16-1.787.6-2.814 1.001-1.014.456-2.188.764-3.278 1.496-1.098.7-2.364 1.284-3.48 2.222-1.081.966-2.386 1.804-3.35 3.034-1.052 1.15-2.092 2.356-2.899 3.73-.934 1.31-1.569 2.749-2.239 4.17a35.724 35.724 0 00-1.492 4.29C.524 23.787.186 26.477.055 28.78c-.108 2.305-.045 4.222.09 5.609.047.655.136 1.29.2 1.73l.08.54.083-.02a14.477 14.477 0 003.767 7.07 14.33 14.33 0 006.933 3.958c2.636.634 5.396.504 7.961-.375a14.353 14.353 0 006.535-4.593 14.53 14.53 0 001.791-15.309 14.416 14.416 0 00-5.296-5.995 14.285 14.285 0 00-7.657-2.227zm35.085 0c-.712 0-1.394.109-2.073.208.22-.744.446-1.502.81-2.183.363-.989.931-1.846 1.496-2.71.472-.934 1.304-1.566 1.917-2.365.64-.777 1.515-1.294 2.207-1.94.68-.674 1.569-1.01 2.277-1.486.74-.427 1.384-.9 2.073-1.124l1.72-.713 1.511-.632L60.018 0l-1.904.462c-.609.154-1.352.334-2.197.55-.865.16-1.787.6-2.814 1.001-1.01.46-2.188.764-3.278 1.5-1.098.7-2.364 1.284-3.48 2.221-1.081.966-2.386 1.804-3.35 3.03-1.052 1.15-2.092 2.357-2.898 3.731-.935 1.31-1.57 2.749-2.24 4.17a35.73 35.73 0 00-1.492 4.29c-.756 2.832-1.094 5.522-1.225 7.824-.108 2.305-.045 4.222.09 5.609.047.655.136 1.29.2 1.73l.08.54.083-.02a14.477 14.477 0 003.767 7.07 14.33 14.33 0 006.933 3.958c2.635.634 5.396.504 7.961-.375a14.353 14.353 0 006.535-4.593 14.53 14.53 0 001.791-15.309 14.416 14.416 0 00-5.296-5.995 14.285 14.285 0 00-7.657-2.227z" fill="#E9CF49"/></g><defs><clipPath id="clip0"><path fill="#fff" d="M0 0h64v48H0z"/></clipPath></defs></svg>