<svg width="19" height="19" fill="none" xmlns="http://www.w3.org/2000/svg"><path d="M9.499 4.685a4.817 4.817 0 100 9.634 4.817 4.817 0 000-9.634zm0 7.945a3.129 3.129 0 110-6.258 3.129 3.129 0 010 6.258zM14.506 5.631a1.123 1.123 0 100-2.246 1.123 1.123 0 000 2.246z" fill="#F3F3F3"/><path d="M18.388 3.366A4.796 4.796 0 0015.646.625a6.881 6.881 0 00-2.277-.438C12.366.143 12.048.131 9.504.131c-2.544 0-2.87 0-3.865.056a6.827 6.827 0 00-2.275.438A4.792 4.792 0 00.622 3.366a6.86 6.86 0 00-.437 2.277C.14 6.645.127 6.963.127 9.508c0 2.544 0 2.868.058 3.865.016.779.163 1.547.437 2.278a4.802 4.802 0 002.743 2.741 6.86 6.86 0 002.277.47c1.003.043 1.32.056 3.864.056 2.544 0 2.87 0 3.865-.057a6.892 6.892 0 002.277-.436 4.807 4.807 0 002.742-2.743 6.86 6.86 0 00.437-2.277c.045-1.002.058-1.32.058-3.865s0-2.867-.058-3.864a6.856 6.856 0 00-.439-2.31zm-1.268 9.93a5.254 5.254 0 01-.324 1.758 3.111 3.111 0 01-1.784 1.782 5.192 5.192 0 01-1.74.324c-.989.046-1.268.057-3.805.057-2.54 0-2.8 0-3.808-.057a5.165 5.165 0 01-1.738-.324 3.11 3.11 0 01-1.79-1.782 5.292 5.292 0 01-.325-1.739c-.045-.99-.055-1.268-.055-3.806 0-2.539 0-2.798.055-3.807.007-.6.116-1.195.324-1.758a3.11 3.11 0 011.79-1.783 5.219 5.219 0 011.74-.324c.99-.045 1.268-.057 3.807-.057 2.538 0 2.798 0 3.806.057a5.167 5.167 0 011.74.324 3.115 3.115 0 011.783 1.783c.204.558.314 1.145.324 1.739.044.99.056 1.269.056 3.807 0 2.538 0 2.81-.045 3.806h-.011z" fill="#F3F3F3"/></svg>