<svg width="21" height="17" fill="none" xmlns="http://www.w3.org/2000/svg"><path d="M20.916 2.152a8.637 8.637 0 01-2.454.664 4.24 4.24 0 001.88-2.327c-.842.49-1.76.835-2.716 1.02a4.291 4.291 0 00-3.12-1.327c-2.36 0-4.274 1.885-4.274 4.208 0 .33.038.651.11.958A12.196 12.196 0 011.534.951a4.13 4.13 0 00-.577 2.115 4.188 4.188 0 001.9 3.503 4.324 4.324 0 01-1.935-.528v.052c0 2.04 1.474 3.74 3.427 4.128a4.395 4.395 0 01-1.125.147c-.276 0-.544-.026-.806-.078a4.269 4.269 0 003.992 2.924 8.658 8.658 0 01-5.307 1.799c-.346 0-.686-.02-1.02-.058a12.215 12.215 0 006.551 1.893c7.861 0 12.16-6.413 12.16-11.975l-.015-.544a8.463 8.463 0 002.137-2.176z" fill="#F3F3F3"/></svg>