<svg width="125" height="125" fill="none" xmlns="http://www.w3.org/2000/svg"><circle cx="62.5" cy="62.5" r="62.5" transform="rotate(-90 62.5 62.5)" fill="#E9CF49"/><path d="M66.547 24.893L72.84 12.93l-1.647-.217-5.143 10.173-.053-.007-2.333-11.158-1.647-.217 2.98 13.184 1.55.205zM73.475 26.564l4.006-12.033-1.5-.5-4.007 12.034 1.501.5zM83.35 29.66l-5.54-2.95 2.05-3.847 5.251 2.797.661-1.241-5.252-2.797 1.913-3.592 5.54 2.95.668-1.257-6.935-3.693-5.961 11.194 6.935 3.693.67-1.257zM95.253 28.573l.062.063-5.046 9.185 1.056 1.056 11.41-6.525-1.168-1.168-9.117 5.525-.05-.05 5.301-9.341-1.13-1.131-9.341 5.301-.05-.05 5.525-9.117-1.169-1.168-6.525 11.41 1.056 1.057 9.186-5.047z" fill="#1F1F1F"/></svg>