<svg width="195" height="195" fill="none" xmlns="http://www.w3.org/2000/svg"><circle cx="97.5" cy="97.5" r="97.5" transform="rotate(-90 97.5 97.5)" fill="#E9CF49"/><path d="M103.826 29.396l5.639-12.284-1.656-.128-4.588 10.435-.053-.004-2.93-11.016-1.656-.128 3.684 13.005 1.56.12zM111.274 30.438l2.376-12.458-1.554-.297-2.376 12.458 1.554.297zM122.056 31.85l-6.012-1.802 1.252-4.176 5.699 1.708.404-1.347-5.7-1.708 1.168-3.898 6.012 1.802.408-1.364-7.526-2.256-3.641 12.149 7.527 2.256.409-1.364zM133.482 27.542l.078.04-1.957 10.296 1.332.678 8.831-9.736-1.472-.75-6.961 8.076-.062-.032 2.151-10.523-1.426-.726-7.242 7.932-.063-.032 2.433-10.38-1.473-.749-2.674 12.87 1.331.677 7.174-7.64zM148.651 34.08l-8.397 9.505 1.186 1.047 2.997-3.392 2.193 1.938c1.785 1.577 4.168 1.442 5.762-.363 1.589-1.798 1.437-4.161-.348-5.738l-3.393-2.997zm.255 2.101l1.897 1.676c1.363 1.205 1.482 2.623.371 3.881-1.117 1.265-2.552 1.323-3.909.124l-1.897-1.676 3.538-4.005zM161.122 46.27c-2.26-2.795-5.643-2.953-8.773-.422-3.13 2.53-3.677 5.866-1.417 8.662 2.26 2.795 5.637 2.959 8.767.428 3.13-2.532 3.684-5.873 1.423-8.668zm-1.134.917c1.63 2.017 1.122 4.519-1.312 6.486-2.426 1.962-4.979 1.935-6.609-.08-1.63-2.017-1.122-4.52 1.304-6.48 2.433-1.968 4.987-1.942 6.617.074zM160.802 59.338l1.494 2.639-3.029 4.836.913 1.614 3.135-5.149c1.22 1.138 2.885 1.296 4.423.426 1.988-1.126 2.5-3.254 1.296-5.38l-2.342-4.138-11.037 6.248.78 1.377 4.367-2.473zm5.446-3.083l1.459 2.578c.805 1.422.502 2.725-.821 3.474-1.353.766-2.573.396-3.374-1.019l-1.494-2.638 4.23-2.395zM162.209 73.734l10.511-4.035 1.433 3.734 1.329-.51-3.432-8.944-1.33.51 1.433 3.733-10.511 4.035.567 1.477zM164.307 80.292l5.353-1.234 1.262 5.472 1.37-.316-1.262-5.472 4.248-.98 1.374 5.96 1.388-.319-1.73-7.502-12.358 2.85.355 1.54zM179.197 91.996c-.235-3.587-2.909-5.666-6.925-5.402-4.017.264-6.387 2.674-6.151 6.261.236 3.587 2.9 5.667 6.917 5.403 4.017-.264 6.395-2.675 6.159-6.262zm-1.456.096c.17 2.587-1.688 4.339-4.81 4.544-3.113.204-5.184-1.29-5.354-3.876-.17-2.588 1.688-4.34 4.801-4.544 3.122-.205 5.194 1.289 5.363 3.876zM167.2 108.534l.589-6.089 11.206 1.084.152-1.575-12.623-1.221-.741 7.664 1.417.137zM165.087 111.563l12.44 2.471.308-1.552-12.44-2.471-.308 1.552zM175.255 123.34c1.148-3.406-.532-6.347-4.347-7.633-3.814-1.285-6.923.041-8.071 3.447-1.149 3.407.523 6.345 4.337 7.631 3.815 1.285 6.932-.038 8.081-3.445zm-1.383-.466c-.828 2.457-3.213 3.369-6.178 2.37-2.957-.997-4.303-3.167-3.475-5.624.828-2.456 3.213-3.368 6.17-2.372 2.965 1 4.311 3.169 3.483 5.626z" fill="#1F1F1F"/></svg>